<svg width="2682" height="1425" xmlns="http://www.w3.org/2000/svg" xmlns:xlink="http://www.w3.org/1999/xlink" xml:space="preserve" overflow="hidden"><defs><clipPath id="clip0"><rect x="303" y="804" width="2682" height="1425"/></clipPath><clipPath id="clip1"><rect x="302" y="804" width="2682" height="1425"/></clipPath><clipPath id="clip2"><rect x="636" y="1005" width="2302" height="974"/></clipPath><clipPath id="clip3"><rect x="636" y="1005" width="2302" height="974"/></clipPath><clipPath id="clip4"><rect x="636" y="1005" width="2302" height="974"/></clipPath><clipPath id="clip5"><rect x="302" y="804" width="2682" height="1425"/></clipPath><clipPath id="clip6"><rect x="302" y="804" width="2682" height="1425"/></clipPath><clipPath id="clip7"><rect x="302" y="804" width="2682" height="1425"/></clipPath><clipPath id="clip8"><rect x="302" y="804" width="2682" height="1425"/></clipPath><clipPath id="clip9"><rect x="302" y="804" width="2682" height="1425"/></clipPath><clipPath id="clip10"><rect x="302" y="804" width="2682" height="1425"/></clipPath><clipPath id="clip11"><rect x="302" y="804" width="2682" height="1425"/></clipPath><clipPath id="clip12"><rect x="302" y="804" width="2682" height="1425"/></clipPath><clipPath id="clip13"><rect x="302" y="804" width="2682" height="1425"/></clipPath><clipPath id="clip14"><rect x="302" y="804" width="2682" height="1425"/></clipPath><clipPath id="clip15"><rect x="302" y="804" width="2682" height="1425"/></clipPath><clipPath id="clip16"><rect x="302" y="804" width="2682" height="1425"/></clipPath><clipPath id="clip17"><rect x="302" y="804" width="2682" height="1425"/></clipPath><clipPath id="clip18"><rect x="302" y="804" width="2682" height="1425"/></clipPath><clipPath id="clip19"><rect x="302" y="804" width="2682" height="1425"/></clipPath><clipPath id="clip20"><rect x="302" y="804" width="2682" height="1425"/></clipPath><clipPath id="clip21"><rect x="302" y="804" width="2682" height="1425"/></clipPath><clipPath id="clip22"><rect x="302" y="804" width="2682" height="1425"/></clipPath><clipPath id="clip23"><rect x="302" y="804" width="2682" height="1425"/></clipPath></defs><g clip-path="url(#clip0)" transform="translate(-303 -804)"><g clip-path="url(#clip1)"><path d="M636.5 1814.56 2934.5 1814.56M636.5 1652.55 2934.5 1652.55M636.5 1491.55 2934.5 1491.55M636.5 1329.54 2934.5 1329.54M636.5 1167.54 2934.5 1167.54M636.5 1005.5 2934.5 1005.5" stroke="#D9D9D9" stroke-width="3.4375" stroke-linejoin="round" stroke-miterlimit="10" fill="none"/></g><g clip-path="url(#clip2)"><path d="M783.026 1142.04 916.03 1142.04 916.03 1976 783.026 1976ZM1549.05 1142.04 1682.06 1142.04 1682.06 1976 1549.05 1976ZM2315.08 1142.04 2449.08 1142.04 2449.08 1976 2315.08 1976Z" fill="#5B9BD5"/></g><g clip-path="url(#clip3)"><path d="M953.031 1728.06 1086.04 1728.06 1086.04 1976 953.031 1976ZM1719.06 1766.06 1852.06 1766.06 1852.06 1976 1719.06 1976ZM2485.08 1812.06 2618.09 1812.06 2618.09 1976 2485.08 1976Z" fill="#ED7D31"/></g><g clip-path="url(#clip4)"><path d="M1122.04 1750.06 1256.04 1750.06 1256.04 1976 1122.04 1976ZM1888.06 1799.06 2022.07 1799.06 2022.07 1976 1888.06 1976ZM2654.09 1920.06 2788.09 1920.06 2788.09 1976 2654.09 1976Z" fill="#A5A5A5"/></g><g clip-path="url(#clip5)"><path d="M636.5 1976.5 2934.5 1976.5" stroke="#D9D9D9" stroke-width="3.4375" stroke-linejoin="round" stroke-miterlimit="10" fill="none" fill-rule="evenodd"/></g><g clip-path="url(#clip6)"><text fill="#595959" font-family="Calibri,Calibri_MSFontService,sans-serif" font-weight="400" font-size="55" transform="matrix(1 0 0 1 557.655 1992)">0</text></g><g clip-path="url(#clip7)"><text fill="#595959" font-family="Calibri,Calibri_MSFontService,sans-serif" font-weight="400" font-size="55" transform="matrix(1 0 0 1 502.059 1830)">500</text></g><g clip-path="url(#clip8)"><text fill="#595959" font-family="Calibri,Calibri_MSFontService,sans-serif" font-weight="400" font-size="55" transform="matrix(1 0 0 1 474.261 1668)">1000</text></g><g clip-path="url(#clip9)"><text fill="#595959" font-family="Calibri,Calibri_MSFontService,sans-serif" font-weight="400" font-size="55" transform="matrix(1 0 0 1 474.261 1507)">1500</text></g><g clip-path="url(#clip10)"><text fill="#595959" font-family="Calibri,Calibri_MSFontService,sans-serif" font-weight="400" font-size="55" transform="matrix(1 0 0 1 474.261 1345)">2000</text></g><g clip-path="url(#clip11)"><text fill="#595959" font-family="Calibri,Calibri_MSFontService,sans-serif" font-weight="400" font-size="55" transform="matrix(1 0 0 1 474.261 1183)">2500</text></g><g clip-path="url(#clip12)"><text fill="#595959" font-family="Calibri,Calibri_MSFontService,sans-serif" font-weight="400" font-size="55" transform="matrix(1 0 0 1 474.261 1021)">3000</text></g><g clip-path="url(#clip13)"><text fill="#595959" font-family="Calibri,Calibri_MSFontService,sans-serif" font-weight="400" font-size="55" transform="matrix(1 0 0 1 842.284 2063)">Максимальное</text></g><g clip-path="url(#clip14)"><text fill="#595959" font-family="Calibri,Calibri_MSFontService,sans-serif" font-weight="400" font-size="55" transform="matrix(1 0 0 1 1685.51 2063)">Среднее</text></g><g clip-path="url(#clip15)"><text fill="#595959" font-family="Calibri,Calibri_MSFontService,sans-serif" font-weight="400" font-size="55" transform="matrix(1 0 0 1 2382.41 2063)">Минимальное</text></g><g clip-path="url(#clip16)"><text fill="#595959" font-family="Calibri,Calibri_MSFontService,sans-serif" font-weight="400" font-size="83" transform="matrix(6.12323e-17 -1 1 6.12323e-17 438.786 1531)">√S</text></g><g clip-path="url(#clip17)"><text fill="#595959" font-family="Calibri,Calibri_MSFontService,sans-serif" font-weight="400" font-size="85" transform="matrix(1 0 0 1 1033.11 919)">Среднеквадратичное отклонение</text></g><g clip-path="url(#clip18)"><rect x="891" y="2140" width="29.9999" height="30.0002" fill="#5B9BD5"/></g><g clip-path="url(#clip19)"><text fill="#595959" font-family="Calibri,Calibri_MSFontService,sans-serif" font-weight="400" font-size="55" transform="matrix(1 0 0 1 934.341 2170)">Вся выборка</text></g><g clip-path="url(#clip20)"><rect x="1314" y="2140" width="29.9999" height="30.0002" fill="#ED7D31"/></g><g clip-path="url(#clip21)"><text fill="#595959" font-family="Calibri,Calibri_MSFontService,sans-serif" font-weight="400" font-size="55" transform="matrix(1 0 0 1 1357.68 2170)">Сеть Кохонена</text></g><g clip-path="url(#clip22)"><rect x="1784" y="2140" width="29.9999" height="30.0002" fill="#A5A5A5"/></g><g clip-path="url(#clip23)"><text fill="#595959" font-family="Calibri,Calibri_MSFontService,sans-serif" font-weight="400" font-size="55" transform="matrix(1 0 0 1 1827.67 2170)">Каскадная сеть Кохонена</text></g></g></svg>